<svg width="177" height="56" viewBox="0 0 177 56" fill="none" xmlns="http://www.w3.org/2000/svg">
<rect width="42" height="56" fill="#FBB731"/>
<path fill-rule="evenodd" clip-rule="evenodd" d="M40.5 7H43.5C54.2644 7.01239 62.9876 15.7356 63 26.5C63 27.3284 62.3284 28 61.5 28H22.5C21.6716 28 21 27.3284 21 26.5C21.0124 15.7356 29.7356 7.01239 40.5 7ZM40.4999 9.99996C31.9723 10.0102 24.8533 16.5086 24.0675 25H59.9324C59.1467 16.5085 52.0277 10.0102 43.5 9.99996H40.4999Z" fill="#443737"/>
<path fill-rule="evenodd" clip-rule="evenodd" d="M55.5 37.1084H61.5001C62.3285 37.1084 63.0001 37.7739 63 38.5949V41.5677C62.9951 45.6704 59.6401 48.9951 55.5 49H28.5C24.3599 48.9951 21.0049 45.6704 21 41.5677V38.5949C21 37.7739 21.6716 37.1084 22.5 37.1084H43.4999C43.8245 37.1084 44.1403 37.2127 44.3999 37.4057L49.5 41.1961L54.6 37.4057C54.8596 37.2127 55.1754 37.1084 55.5 37.1084ZM55.5 46.0271C57.9853 46.0271 60 44.0306 60 41.5677V40.0813H55.9995L50.4 44.2434C49.8667 44.6397 49.1333 44.6397 48.6 44.2434L43.0005 40.0813H24V41.5677C24 44.0306 26.0147 46.0271 28.5 46.0271H55.5Z" fill="#443737"/>
<path d="M61.5 31.0361H22.5C21.6716 31.0361 21 31.7158 21 32.5542C21 33.3925 21.6716 34.0723 22.5 34.0723H61.5C62.3284 34.0723 63 33.3926 63 32.5542C63 31.7157 62.3284 31.0361 61.5 31.0361Z" fill="#443737"/>
<path d="M34.4096 15.8555C33.5712 15.8555 32.8915 16.5351 32.8915 17.3735V18.8916C32.8915 19.73 33.5712 20.4097 34.4096 20.4097C35.248 20.4097 35.9277 19.73 35.9277 18.8916V17.3735C35.9277 16.5351 35.248 15.8555 34.4096 15.8555Z" fill="#443737"/>
<path d="M42 15.8555C41.1616 15.8555 40.4819 16.5351 40.4819 17.3735V18.8916C40.4819 19.73 41.1616 20.4097 42 20.4097C42.8384 20.4097 43.5181 19.7299 43.5181 18.8915V17.3735C43.5181 16.5351 42.8384 15.8555 42 15.8555Z" fill="#443737"/>
<path d="M49.5903 15.8555C48.7519 15.8555 48.0723 16.5351 48.0723 17.3735V18.8916C48.0723 19.73 48.7519 20.4097 49.5903 20.4097C50.4288 20.4097 51.1084 19.73 51.1084 18.8916V17.3735C51.1083 16.5351 50.4287 15.8555 49.5903 15.8555Z" fill="#443737"/>
<path d="M75 35.6823V15.3177H82.8294C84.6555 15.3177 86.0614 15.7895 87.0471 16.7332C88.0491 17.6768 88.55 18.967 88.55 20.6039C88.55 21.6823 88.3238 22.6162 87.8713 23.4058C87.4188 24.1761 86.7886 24.7538 85.9806 25.1389C86.9502 25.4663 87.6935 26.044 88.2107 26.8721C88.7439 27.7001 89.0106 28.7208 89.0106 29.934C89.0106 31.7442 88.4773 33.1596 87.4107 34.1802C86.3604 35.1816 84.9221 35.6823 83.0961 35.6823H75ZM78.5875 23.6946H82.175C84.0172 23.6946 84.9383 22.8473 84.9383 21.1527C84.9383 19.4773 84.0172 18.6396 82.175 18.6396H78.5875V23.6946ZM78.5875 32.3604H82.587C83.5566 32.3604 84.2677 32.1389 84.7201 31.696C85.1726 31.2531 85.3988 30.5791 85.3988 29.674C85.3988 28.7882 85.1726 28.1238 84.7201 27.6809C84.2677 27.238 83.5566 27.0165 82.587 27.0165H78.5875V32.3604Z" fill="#443737"/>
<path d="M99.1746 36C96.7506 36 94.9003 35.2586 93.6237 33.7758C92.3632 32.293 91.733 30.088 91.733 27.1609V15.3177H95.4901V27.1898C95.4901 28.8459 95.8053 30.0977 96.4355 30.945C97.0657 31.773 97.9788 32.1871 99.1746 32.1871C101.615 32.1871 102.835 30.5213 102.835 27.1898V15.3177H106.543V27.1609C106.543 30.088 105.921 32.293 104.677 33.7758C103.433 35.2586 101.599 36 99.1746 36Z" fill="#443737"/>
<path d="M109.868 35.6823V15.3177H117.673C119.58 15.3177 121.051 15.8666 122.085 16.9642C123.119 18.0619 123.636 19.5928 123.636 21.5571C123.636 23.0784 123.305 24.3494 122.643 25.37C121.996 26.3714 121.067 27.055 119.855 27.4209C120.712 27.729 121.414 28.4704 121.964 29.6451L124.727 35.6823H120.582L117.625 29.1829C117.383 28.663 117.084 28.3067 116.728 28.1142C116.373 27.9023 115.952 27.7964 115.468 27.7964H113.625V35.6823H109.868ZM113.625 24.5612H116.995C119.015 24.5612 120.025 23.5983 120.025 21.6726C120.025 19.7662 119.015 18.8129 116.995 18.8129H113.625V24.5612Z" fill="#443737"/>
<path d="M135.087 36C133.164 36 131.532 35.5667 130.191 34.7001C128.866 33.8336 127.856 32.6204 127.161 31.0605C126.466 29.5007 126.119 27.6713 126.119 25.5722C126.119 23.4154 126.474 21.5475 127.185 19.9684C127.912 18.3893 128.955 17.1664 130.312 16.2999C131.67 15.4333 133.302 15 135.209 15C136.404 15 137.536 15.2022 138.602 15.6066C139.685 16.011 140.566 16.5502 141.244 17.2242L140.032 20.7194C139.289 20.0646 138.529 19.6025 137.754 19.3329C136.978 19.044 136.138 18.8996 135.233 18.8996C133.504 18.8996 132.203 19.4773 131.33 20.6327C130.474 21.7689 130.046 23.4154 130.046 25.5722C130.046 27.7483 130.482 29.3948 131.355 30.5117C132.243 31.6286 133.552 32.1871 135.281 32.1871C136.202 32.1871 137.172 32.0138 138.19 31.6671V27.6809H134.506V24.4457H141.293V34.4402C140.452 34.9409 139.483 35.326 138.384 35.5956C137.285 35.8652 136.186 36 135.087 36Z" fill="#443737"/>
<path d="M152.545 36C150.864 36 149.385 35.5667 148.109 34.7001C146.848 33.8143 145.862 32.5915 145.151 31.0316C144.457 29.4525 144.109 27.6039 144.109 25.4856C144.109 23.3673 144.457 21.5282 145.151 19.9684C145.862 18.3893 146.848 17.1664 148.109 16.2999C149.369 15.4333 150.848 15 152.545 15C154.241 15 155.72 15.4333 156.98 16.2999C158.257 17.1664 159.243 18.3893 159.938 19.9684C160.649 21.5282 161.004 23.3576 161.004 25.4567C161.004 27.575 160.649 29.4237 159.938 31.0028C159.243 32.5818 158.257 33.8143 156.98 34.7001C155.72 35.5667 154.241 36 152.545 36ZM152.545 32.1871C153.967 32.1871 155.074 31.5997 155.865 30.425C156.673 29.2311 157.077 27.5846 157.077 25.4856C157.077 23.3673 156.681 21.7304 155.89 20.575C155.098 19.4003 153.983 18.8129 152.545 18.8129C151.139 18.8129 150.032 19.4003 149.224 20.575C148.432 21.7304 148.036 23.3673 148.036 25.4856C148.036 27.5846 148.432 29.2311 149.224 30.425C150.032 31.5997 151.139 32.1871 152.545 32.1871Z" fill="#443737"/>
<path d="M170.019 36C168.678 36 167.409 35.7978 166.213 35.3934C165.034 34.989 164.048 34.4402 163.256 33.7469L164.347 30.2228C165.106 30.8583 165.971 31.359 166.941 31.7249C167.926 32.0908 168.952 32.2737 170.019 32.2737C171.182 32.2737 172.015 32.0619 172.516 31.6382C173.033 31.1953 173.291 30.6465 173.291 29.9917C173.291 29.4333 173.114 28.9904 172.758 28.663C172.403 28.3356 171.78 28.0564 170.892 27.8253L168.152 27.132C165.098 26.3618 163.571 24.4746 163.571 21.4704C163.571 20.1802 163.862 19.0536 164.444 18.0908C165.026 17.1087 165.834 16.348 166.868 15.8088C167.918 15.2696 169.13 15 170.504 15C171.683 15 172.79 15.2022 173.825 15.6066C174.859 16.011 175.715 16.5791 176.394 17.3109L175.303 20.6039C173.978 19.3521 172.37 18.7263 170.48 18.7263C169.461 18.7263 168.67 18.967 168.104 19.4484C167.555 19.9106 167.28 20.5172 167.28 21.2682C167.28 21.8267 167.45 22.2792 167.789 22.6259C168.128 22.9725 168.718 23.2517 169.558 23.4635L172.297 24.1568C175.432 24.9656 177 26.795 177 29.6451C177 30.9161 176.709 32.033 176.127 32.9959C175.562 33.9395 174.754 34.6809 173.703 35.2201C172.669 35.74 171.441 36 170.019 36Z" fill="#443737"/>
</svg>
